# xmcd
#
# Track frame offsets:
#	150
#	15930
#	29265
#	44426
#	61928
#	77827
#	91759
#	104915
#	118690
#	134892
#	150742
#
# Disc length: 2189 seconds
# Revision: 0
# Processed by: cddbd v1.5.2PL0 Copyright (c) Steve Scherf et al.
# Submitted via: dBpowerAMP V12.0
#
DISCID=8e088b0b
DTITLE=Chris Young - Chris Young (Advance)
DYEAR=2006
DGENRE=Country
TTITLE0=Beer Or Gasoline
TTITLE1=You're Gonna Love Me
TTITLE2=Drinkin' Me Lonely
TTITLE3=White Lightning Hit The Family Tree
TTITLE4=Lay It On Me
TTITLE5=Burn
TTITLE6=Small Town Big Time
TTITLE7=Flowers
TTITLE8=Center Of My World
TTITLE9=I'm Headed Your Way, Jose
TTITLE10=Who's Gonna Take Me Home
EXTD=
EXTT0=
EXTT1=
EXTT2=
EXTT3=
EXTT4=
EXTT5=
EXTT6=
EXTT7=
EXTT8=
EXTT9=
EXTT10=
PLAYORDER=
